<?xml version="1.0" standalone="no"?><!DOCTYPE svg PUBLIC "-//W3C//DTD SVG 1.1//EN" "http://www.w3.org/Graphics/SVG/1.1/DTD/svg11.dtd"><svg t="1695282433657" class="icon" viewBox="0 0 1024 1024" version="1.1" xmlns="http://www.w3.org/2000/svg" p-id="9382" xmlns:xlink="http://www.w3.org/1999/xlink" width="200" height="200"><path d="M684.47 830.94H352.19c-15.19 0-27.5-12.31-27.5-27.5s12.31-27.5 27.5-27.5h332.28c78.02 0 141.5-68.75 141.5-153.25s-63.48-153.25-141.5-153.25h-483.5c-15.19 0-27.5-12.31-27.5-27.5s12.31-27.5 27.5-27.5h483.5c52.65 0 102.17 21.95 139.44 61.81 36.79 39.35 57.06 91.36 57.06 146.44s-20.26 107.08-57.06 146.44c-37.26 39.86-86.79 61.81-139.44 61.81z" fill="#D0E2FA" p-id="9383"></path><path d="M416.83 675.73c-6.22 0-12.48-2.1-17.63-6.41L152.88 463.28c-5.95-4.98-9.52-12.24-9.83-20s2.67-15.28 8.21-20.72L376.9 200.94c10.83-10.64 28.25-10.49 38.89 0.35 10.64 10.83 10.49 28.25-0.35 38.89l-204 200.38 223.05 186.58c11.65 9.75 13.19 27.09 3.45 38.74-5.44 6.49-13.25 9.85-21.11 9.85z" fill="#3376E5" p-id="9384"></path></svg>