<?xml version="1.0" standalone="no"?><!DOCTYPE svg PUBLIC "-//W3C//DTD SVG 1.1//EN" "http://www.w3.org/Graphics/SVG/1.1/DTD/svg11.dtd"><svg height="1568" node-id="1" sillyvg="true" template-height="1568" template-width="1568" version="1.1" viewBox="0 0 1568 1568" width="1568" xmlns="http://www.w3.org/2000/svg" xmlns:xlink="http://www.w3.org/1999/xlink"><defs node-id="94"><linearGradient gradientUnits="userSpaceOnUse" id="paint0_linear_0_113" node-id="65" spreadMethod="pad" x1="144" x2="1682.48" y1="12" y2="761.215"><stop offset="0" stop-color="#6d93ff"></stop><stop offset="1" stop-color="#4168f3"></stop></linearGradient><linearGradient gradientUnits="userSpaceOnUse" id="paint1_linear_0_113" node-id="68" spreadMethod="pad" x1="1091.71" x2="269.813" y1="326.617" y2="959.537"><stop offset="0" stop-color="#a5c5ff"></stop><stop offset="0.119446" stop-color="#6fa6ff"></stop><stop offset="0.148963" stop-color="#a5c5ff"></stop><stop offset="0.342763" stop-color="#498eff"></stop><stop offset="0.591668" stop-color="#6fa6ff"></stop><stop offset="0.685214" stop-color="#a5c5ff"></stop><stop offset="0.716499" stop-color="#6fa6ff"></stop></linearGradient><radialGradient cx="0" cy="0" fx="0" fy="0" gradientTransform="matrix(131.99981637 273.99994803 -297.10820372 143.13224734 780 531.999)" gradientUnits="userSpaceOnUse" id="paint2_radial_0_113" node-id="76" r="1" rev="4" spreadMethod="pad"><stop offset="0" stop-color="#1451be"></stop><stop offset="1" stop-color="#4168f3" stop-opacity="0"></stop></radialGradient><linearGradient gradientUnits="userSpaceOnUse" id="paint3_linear_0_113" node-id="79" spreadMethod="pad" x1="1091.71" x2="269.813" y1="326.617" y2="959.537"><stop offset="0" stop-color="#a5c5ff"></stop><stop offset="0.119446" stop-color="#6fa6ff"></stop><stop offset="0.148963" stop-color="#a5c5ff"></stop><stop offset="0.342763" stop-color="#498eff"></stop><stop offset="0.591668" stop-color="#6fa6ff"></stop><stop offset="0.685214" stop-color="#a5c5ff"></stop><stop offset="0.716499" stop-color="#6fa6ff"></stop></linearGradient><radialGradient cx="0" cy="0" fx="0" fy="0" gradientTransform="matrix(131.99981637 273.99994803 -297.10820372 143.13224734 780 531.999)" gradientUnits="userSpaceOnUse" id="paint4_radial_0_113" node-id="87" r="1" rev="2" spreadMethod="pad"><stop offset="0" stop-color="#1451be"></stop><stop offset="1" stop-color="#4168f3" stop-opacity="0"></stop></radialGradient><linearGradient gradientUnits="userSpaceOnUse" id="paint5_linear_0_113" node-id="90" spreadMethod="pad" x1="826.898" x2="826.898" y1="292" y2="946.277"><stop offset="0" stop-color="#e7efff"></stop><stop offset="1" stop-color="#a6c4ff"></stop></linearGradient><filter height="1568" id="filter0_d_0_113" node-id="15" width="1568" x="0" y="0"><feFlood color-interpolation-filters="sRGB" flood-color="#000000" flood-opacity="0" result="BackgroundImageFix"></feFlood><feColorMatrix color-interpolation-filters="sRGB" in="SourceAlpha" result="hardAlpha" type="matrix" values="0 0 0 0 0 0 0 0 0 0 0 0 0 0 0 0 0 0 127 0"></feColorMatrix><feMorphology color-interpolation-filters="sRGB" in="SourceAlpha" operator="erode" radius="48 48" result="effect1_dropShadow_0_113"></feMorphology><feOffset color-interpolation-filters="sRGB" dx="0" dy="132" in="effect1_dropShadow_0_113" result="result4"></feOffset><feGaussianBlur color-interpolation-filters="sRGB" in="result4" result="result5" stdDeviation="96 96"></feGaussianBlur><feComposite color-interpolation-filters="sRGB" in="result5" in2="hardAlpha" operator="out" result="result6"></feComposite><feColorMatrix color-interpolation-filters="sRGB" in="result6" result="result7" type="matrix" values="0 0 0 0 0.2 0 0 0 0 0.443137 0 0 0 0 0.929412 0 0 0 0.5 0"></feColorMatrix><feBlend color-interpolation-filters="sRGB" in="result7" in2="BackgroundImageFix" mode="normal" result="effect1_dropShadow_0_113"></feBlend><feBlend color-interpolation-filters="sRGB" in="SourceGraphic" in2="effect1_dropShadow_0_113" mode="normal" result="shape"></feBlend></filter><filter height="256" id="filter1_f_0_113" node-id="25" width="612" x="468" y="896"><feFlood color-interpolation-filters="sRGB" flood-color="#000000" flood-opacity="0" result="BackgroundImageFix"></feFlood><feBlend color-interpolation-filters="sRGB" in="SourceGraphic" in2="BackgroundImageFix" mode="normal" result="shape"></feBlend><feGaussianBlur color-interpolation-filters="sRGB" in="shape" result="effect1_foregroundBlur_0_113" stdDeviation="48 48"></feGaussianBlur></filter><filter height="693.884" id="filter2_i_0_113" node-id="29" width="551.776" x="634.422" y="314.617"><feFlood color-interpolation-filters="sRGB" flood-color="#000000" flood-opacity="0" result="BackgroundImageFix"></feFlood><feBlend color-interpolation-filters="sRGB" in="SourceGraphic" in2="BackgroundImageFix" mode="normal" result="shape"></feBlend><feColorMatrix color-interpolation-filters="sRGB" in="SourceAlpha" result="hardAlpha" type="matrix" values="0 0 0 0 0 0 0 0 0 0 0 0 0 0 0 0 0 0 127 0"></feColorMatrix><feOffset color-interpolation-filters="sRGB" dx="0" dy="-12" in="hardAlpha" result="result4"></feOffset><feGaussianBlur color-interpolation-filters="sRGB" in="result4" result="result5" stdDeviation="14 14"></feGaussianBlur><feComposite color-interpolation-filters="sRGB" in="result5" in2="hardAlpha" k1="0" k2="-1" k3="1" k4="0" operator="arithmetic" result="result6"></feComposite><feColorMatrix color-interpolation-filters="sRGB" in="result6" result="result7" type="matrix" values="0 0 0 0 0.908698 0 0 0 0 0.995833 0 0 0 0 0.990605 0 0 0 0.25 0"></feColorMatrix><feBlend color-interpolation-filters="sRGB" in="result7" in2="shape" mode="normal" result="effect1_innerShadow_0_113"></feBlend></filter><filter height="694.277" id="filter3_iiii_0_113" node-id="38" width="698.315" x="426.767" y="252"><feFlood color-interpolation-filters="sRGB" flood-color="#000000" flood-opacity="0" result="BackgroundImageFix"></feFlood><feBlend color-interpolation-filters="sRGB" in="SourceGraphic" in2="BackgroundImageFix" mode="normal" result="shape"></feBlend><feColorMatrix color-interpolation-filters="sRGB" in="SourceAlpha" result="hardAlpha" type="matrix" values="0 0 0 0 0 0 0 0 0 0 0 0 0 0 0 0 0 0 127 0"></feColorMatrix><feOffset color-interpolation-filters="sRGB" dx="0" dy="-4" in="hardAlpha" result="result4"></feOffset><feGaussianBlur color-interpolation-filters="sRGB" in="result4" result="result5" stdDeviation="8 8"></feGaussianBlur><feComposite color-interpolation-filters="sRGB" in="result5" in2="hardAlpha" k1="0" k2="-1" k3="1" k4="0" operator="arithmetic" result="result6"></feComposite><feColorMatrix color-interpolation-filters="sRGB" in="result6" result="result7" type="matrix" values="0 0 0 0 1 0 0 0 0 1 0 0 0 0 1 0 0 0 0.25 0"></feColorMatrix><feBlend color-interpolation-filters="sRGB" in="result7" in2="shape" mode="normal" result="effect1_innerShadow_0_113"></feBlend><feColorMatrix color-interpolation-filters="sRGB" in="SourceAlpha" result="hardAlpha" type="matrix" values="0 0 0 0 0 0 0 0 0 0 0 0 0 0 0 0 0 0 127 0"></feColorMatrix><feOffset color-interpolation-filters="sRGB" dx="0" dy="-4" in="hardAlpha" result="result10"></feOffset><feGaussianBlur color-interpolation-filters="sRGB" in="result10" result="result11" stdDeviation="8 8"></feGaussianBlur><feComposite color-interpolation-filters="sRGB" in="result11" in2="hardAlpha" k1="0" k2="-1" k3="1" k4="0" operator="arithmetic" result="result12"></feComposite><feColorMatrix color-interpolation-filters="sRGB" in="result12" result="result13" type="matrix" values="0 0 0 0 1 0 0 0 0 1 0 0 0 0 1 0 0 0 1 0"></feColorMatrix><feBlend color-interpolation-filters="sRGB" in="result13" in2="effect1_innerShadow_0_113" mode="normal" result="effect2_innerShadow_0_113"></feBlend><feColorMatrix color-interpolation-filters="sRGB" in="SourceAlpha" result="hardAlpha" type="matrix" values="0 0 0 0 0 0 0 0 0 0 0 0 0 0 0 0 0 0 127 0"></feColorMatrix><feOffset color-interpolation-filters="sRGB" dx="0" dy="-4" in="hardAlpha" result="result16"></feOffset><feGaussianBlur color-interpolation-filters="sRGB" in="result16" result="result17" stdDeviation="8 8"></feGaussianBlur><feComposite color-interpolation-filters="sRGB" in="result17" in2="hardAlpha" k1="0" k2="-1" k3="1" k4="0" operator="arithmetic" result="result18"></feComposite><feColorMatrix color-interpolation-filters="sRGB" in="result18" result="result19" type="matrix" values="0 0 0 0 1 0 0 0 0 1 0 0 0 0 1 0 0 0 1 0"></feColorMatrix><feBlend color-interpolation-filters="sRGB" in="result19" in2="effect2_innerShadow_0_113" mode="normal" result="effect3_innerShadow_0_113"></feBlend><feColorMatrix color-interpolation-filters="sRGB" in="SourceAlpha" result="hardAlpha" type="matrix" values="0 0 0 0 0 0 0 0 0 0 0 0 0 0 0 0 0 0 127 0"></feColorMatrix><feOffset color-interpolation-filters="sRGB" dx="0" dy="-40" in="hardAlpha" result="result22"></feOffset><feGaussianBlur color-interpolation-filters="sRGB" in="result22" result="result23" stdDeviation="26 26"></feGaussianBlur><feComposite color-interpolation-filters="sRGB" in="result23" in2="hardAlpha" k1="0" k2="-1" k3="1" k4="0" operator="arithmetic" result="result24"></feComposite><feColorMatrix color-interpolation-filters="sRGB" in="result24" result="result25" type="matrix" values="0 0 0 0 1 0 0 0 0 1 0 0 0 0 1 0 0 0 0.25 0"></feColorMatrix><feBlend color-interpolation-filters="sRGB" in="result25" in2="effect3_innerShadow_0_113" mode="normal" result="effect4_innerShadow_0_113"></feBlend></filter></defs><path d="M 240.00 12.00 L 1328.00 12.00 C 1381.02 12.00 1424.00 54.98 1424.00 108.00 L 1424.00 1196.00 C 1424.00 1249.02 1381.02 1292.00 1328.00 1292.00 L 240.00 1292.00 C 186.98 1292.00 144.00 1249.02 144.00 1196.00 L 144.00 108.00 C 144.00 54.98 186.98 12.00 240.00 12.00 Z" fill="url(#paint0_linear_0_113)" fill-rule="nonzero" node-id="255" stroke="none" target-height="1280" target-width="1280" target-x="144" target-y="12"></path><g node-id="282"><path d="M 984.00 1024.00 C 984.00 1041.67 889.98 1056.00 774.00 1056.00 C 658.02 1056.00 564.00 1041.67 564.00 1024.00 C 564.00 1006.33 658.02 992.00 774.00 992.00 C 889.98 992.00 984.00 1006.33 984.00 1024.00 Z" fill="#1543d9" fill-rule="nonzero" filter="url(#filter1_f_0_113)" group-id="1" node-id="259" stroke="none" target-height="64" target-width="420" target-x="564" target-y="992"></path></g><g node-id="283"><path d="M 1112.13 557.40 L 1111.92 326.63 L 1177.20 412.29 C 1183.64 420.75 1186.80 431.25 1186.10 441.86 L 1174.36 619.62 C 1173.80 627.98 1171.32 636.43 1167.09 644.36 C 1162.87 652.29 1157.00 659.49 1149.92 665.44 L 761.07 992.01 C 754.85 997.24 747.82 1001.39 740.39 1004.22 C 732.96 1007.05 725.27 1008.50 717.77 1008.50 C 710.26 1008.50 703.09 1007.05 696.65 1004.22 L 634.42 941.99 C 640.86 944.82 648.04 946.28 655.54 946.28 C 663.04 946.28 670.73 944.82 678.16 941.99 C 685.59 939.16 692.62 935.01 698.84 929.79 L 1087.69 603.21 C 1094.77 597.27 1100.64 590.07 1104.87 582.14 C 1109.10 574.21 1111.58 565.76 1112.13 557.40 Z" fill="url(#paint1_linear_0_113)" fill-rule="nonzero" filter="url(#filter2_i_0_113)" group-id="2" node-id="264" stroke="none" target-height="681.86597" target-width="552.37805" target-x="634.422" target-y="326.634"></path><path d="M 1112.13 557.40 L 1111.92 326.63 L 1177.20 412.29 C 1183.64 420.75 1186.80 431.25 1186.10 441.86 L 1174.36 619.62 C 1173.80 627.98 1171.32 636.43 1167.09 644.36 C 1162.87 652.29 1157.00 659.49 1149.92 665.44 L 761.07 992.01 C 754.85 997.24 747.82 1001.39 740.39 1004.22 C 732.96 1007.05 725.27 1008.50 717.77 1008.50 C 710.26 1008.50 703.09 1007.05 696.65 1004.22 L 634.42 941.99 C 640.86 944.82 648.04 946.28 655.54 946.28 C 663.04 946.28 670.73 944.82 678.16 941.99 C 685.59 939.16 692.62 935.01 698.84 929.79 L 1087.69 603.21 C 1094.77 597.27 1100.64 590.07 1104.87 582.14 C 1109.10 574.21 1111.58 565.76 1112.13 557.40 Z" fill="url(#paint2_radial_0_113)" fill-rule="nonzero" filter="url(#filter2_i_0_113)" group-id="2" node-id="266" stroke="none" target-height="681.86597" target-width="552.37805" target-x="634.422" target-y="326.634"></path><path d="M 1012.00 396.00 L 792.00 396.00 L 792.00 640.00 L 1012.00 640.00 L 1012.00 396.00 Z" fill="url(#paint3_linear_0_113)" fill-rule="nonzero" filter="url(#filter2_i_0_113)" group-id="2" node-id="268" stroke="none" target-height="244.00003" target-width="219.99902" target-x="792.001" target-y="395.999"></path><path d="M 1012.00 396.00 L 792.00 396.00 L 792.00 640.00 L 1012.00 640.00 L 1012.00 396.00 Z" fill="url(#paint4_radial_0_113)" fill-rule="nonzero" filter="url(#filter2_i_0_113)" group-id="2" node-id="270" stroke="none" target-height="244.00003" target-width="219.99902" target-x="792.001" target-y="395.999"></path></g><g node-id="284"><path d="M 889.53 292.32 L 1083.02 313.26 C 1095.74 314.63 1106.84 320.33 1114.47 329.42 C 1122.10 338.50 1125.81 350.41 1124.96 363.18 L 1112.13 557.40 C 1111.58 565.76 1109.10 574.21 1104.87 582.14 C 1100.64 590.07 1094.77 597.27 1087.69 603.21 L 698.84 929.79 C 692.62 935.02 685.59 939.16 678.16 941.99 C 670.73 944.82 663.04 946.28 655.54 946.28 C 648.03 946.28 640.86 944.82 634.42 941.99 C 627.99 939.16 622.41 935.02 618.02 929.79 L 437.36 714.65 C 428.50 704.10 425.00 689.79 427.61 674.86 C 430.23 659.94 438.76 645.62 451.32 635.07 L 840.16 308.50 C 847.24 302.55 855.35 298.01 863.89 295.21 C 872.44 292.41 881.20 291.42 889.53 292.32 Z M 914.90 417.74 C 903.64 417.74 892.11 419.92 880.97 424.17 C 869.82 428.41 859.28 434.63 849.95 442.47 C 840.61 450.31 832.66 459.61 826.56 469.86 C 820.45 480.10 816.31 491.08 814.37 502.17 C 812.42 513.25 812.71 524.23 815.22 534.48 C 817.73 544.72 822.41 554.03 829.00 561.87 C 835.59 569.71 843.94 575.92 853.60 580.17 C 863.26 584.41 874.02 586.59 885.28 586.59 C 908.01 586.59 931.37 577.69 950.22 561.86 C 969.07 546.03 981.87 524.56 985.79 502.17 C 989.72 479.78 984.46 458.30 971.16 442.47 C 957.87 426.64 937.63 417.74 914.90 417.74 Z M 905.02 474.02 C 908.78 474.02 912.37 474.75 915.58 476.17 C 918.80 477.58 921.59 479.65 923.78 482.27 C 925.98 484.88 927.54 487.98 928.38 491.40 C 929.22 494.81 929.31 498.47 928.66 502.17 C 928.01 505.86 926.63 509.52 924.60 512.94 C 922.56 516.35 919.91 519.45 916.80 522.07 C 913.69 524.68 910.18 526.75 906.46 528.17 C 902.75 529.58 898.90 530.31 895.15 530.31 C 887.57 530.31 880.83 527.34 876.40 522.06 C 871.97 516.79 870.21 509.63 871.52 502.17 C 872.83 494.70 877.10 487.55 883.38 482.27 C 889.66 476.99 897.45 474.03 905.02 474.02 Z" fill="url(#paint5_linear_0_113)" fill-rule="nonzero" filter="url(#filter3_iiii_0_113)" group-id="3" node-id="275" stroke="none" target-height="654.854" target-width="700.8141" target-x="424.996" target-y="291.423"></path></g><path d="M 240.00 13.00 L 1328.00 13.00 C 1380.47 13.00 1423.00 55.53 1423.00 108.00 L 1423.00 1196.00 C 1423.00 1248.47 1380.47 1291.00 1328.00 1291.00 L 240.00 1291.00 C 187.53 1291.00 145.00 1248.47 145.00 1196.00 L 145.00 108.00 C 145.00 55.53 187.53 13.00 240.00 13.00 Z" fill="none" group-id="4" node-id="280" stroke="#ffffff" stroke-linecap="butt" stroke-opacity="0.5" stroke-width="2" target-height="1278" target-width="1278" target-x="145" target-y="13"></path></svg>